<?xml version="1.0" encoding="UTF-8"?><svg xmlns="http://www.w3.org/2000/svg" xmlns:xlink="http://www.w3.org/1999/xlink" fill-opacity="1" color-rendering="auto" color-interpolation="auto" text-rendering="auto" stroke="black" stroke-linecap="square" width="398" stroke-miterlimit="10" shape-rendering="auto" stroke-opacity="1" fill="black" stroke-dasharray="none" font-weight="normal" stroke-width="1" height="162" font-family="'Dialog'" font-style="normal" stroke-linejoin="miter" font-size="12px" stroke-dashoffset="0" image-rendering="auto">
  <!--Generated by ySVG 2.5-->
  <defs id="genericDefs"/>
  <g>
    <defs id="defs1">
      <linearGradient x1="440" gradientUnits="userSpaceOnUse" x2="520" y1="221" y2="261" id="linearGradient1" spreadMethod="reflect">
        <stop stop-opacity="1" stop-color="rgb(232,238,247)" offset="0%"/>
        <stop stop-opacity="1" stop-color="rgb(183,201,227)" offset="100%"/>
      </linearGradient>
      <linearGradient x1="584" gradientUnits="userSpaceOnUse" x2="664" y1="221" y2="261" id="linearGradient2" spreadMethod="reflect">
        <stop stop-opacity="1" stop-color="rgb(232,238,247)" offset="0%"/>
        <stop stop-opacity="1" stop-color="rgb(183,201,227)" offset="100%"/>
      </linearGradient>
      <linearGradient x1="728" gradientUnits="userSpaceOnUse" x2="808" y1="221" y2="261" id="linearGradient3" spreadMethod="reflect">
        <stop stop-opacity="1" stop-color="rgb(232,238,247)" offset="0%"/>
        <stop stop-opacity="1" stop-color="rgb(183,201,227)" offset="100%"/>
      </linearGradient>
      <linearGradient x1="584" gradientUnits="userSpaceOnUse" x2="664" y1="313" y2="353" id="linearGradient4" spreadMethod="reflect">
        <stop stop-opacity="1" stop-color="rgb(232,238,247)" offset="0%"/>
        <stop stop-opacity="1" stop-color="rgb(183,201,227)" offset="100%"/>
      </linearGradient>
      <clipPath clipPathUnits="userSpaceOnUse" id="clipPath1">
        <path d="M0 0 L398 0 L398 162 L0 162 L0 0 Z"/>
      </clipPath>
      <clipPath clipPathUnits="userSpaceOnUse" id="clipPath2">
        <path d="M425 206 L823 206 L823 368 L425 368 L425 206 Z"/>
      </clipPath>
    </defs>
    <g fill="white" text-rendering="geometricPrecision" shape-rendering="geometricPrecision" transform="translate(-425,-206)" stroke="white">
      <rect x="425" width="398" height="162" y="206" clip-path="url(#clipPath2)" stroke="none"/>
    </g>
    <g fill="url(#linearGradient1)" text-rendering="geometricPrecision" shape-rendering="geometricPrecision" transform="matrix(1,0,0,1,-425,-206)" stroke="url(#linearGradient1)">
      <path d="M440 221 L520 221 L520 261 L440 261 Z" stroke="none" clip-path="url(#clipPath2)"/>
    </g>
    <g text-rendering="geometricPrecision" stroke-miterlimit="1.45" shape-rendering="geometricPrecision" transform="matrix(1,0,0,1,-425,-206)" stroke-linecap="butt">
      <path fill="none" d="M440 221 L520 221 L520 261 L440 261 Z" clip-path="url(#clipPath2)"/>
      <text x="457.9805" xml:space="preserve" y="245.7139" clip-path="url(#clipPath2)" font-family="sans-serif" stroke="none">Eingabe</text>
    </g>
    <g fill="url(#linearGradient2)" text-rendering="geometricPrecision" shape-rendering="geometricPrecision" transform="matrix(1,0,0,1,-425,-206)" stroke="url(#linearGradient2)">
      <path d="M584 221 L664 221 L664 261 L584 261 Z" stroke="none" clip-path="url(#clipPath2)"/>
    </g>
    <g text-rendering="geometricPrecision" stroke-miterlimit="1.45" shape-rendering="geometricPrecision" transform="matrix(1,0,0,1,-425,-206)" stroke-linecap="butt">
      <path fill="none" d="M584 221 L664 221 L664 261 L584 261 Z" clip-path="url(#clipPath2)"/>
      <text x="589.6436" xml:space="preserve" y="245.7139" clip-path="url(#clipPath2)" font-family="sans-serif" stroke="none">Verarbeitung</text>
    </g>
    <g fill="url(#linearGradient3)" text-rendering="geometricPrecision" shape-rendering="geometricPrecision" transform="matrix(1,0,0,1,-425,-206)" stroke="url(#linearGradient3)">
      <path d="M728 221 L808 221 L808 261 L728 261 Z" stroke="none" clip-path="url(#clipPath2)"/>
    </g>
    <g text-rendering="geometricPrecision" stroke-miterlimit="1.45" shape-rendering="geometricPrecision" transform="matrix(1,0,0,1,-425,-206)" stroke-linecap="butt">
      <path fill="none" d="M728 221 L808 221 L808 261 L728 261 Z" clip-path="url(#clipPath2)"/>
      <text x="744.3135" xml:space="preserve" y="245.7139" clip-path="url(#clipPath2)" font-family="sans-serif" stroke="none">Ausgabe</text>
    </g>
    <g fill="url(#linearGradient4)" text-rendering="geometricPrecision" shape-rendering="geometricPrecision" transform="matrix(1,0,0,1,-425,-206)" stroke="url(#linearGradient4)">
      <path d="M584 313 L664 313 L664 353 L584 353 Z" stroke="none" clip-path="url(#clipPath2)"/>
    </g>
    <g text-rendering="geometricPrecision" stroke-miterlimit="1.45" shape-rendering="geometricPrecision" transform="matrix(1,0,0,1,-425,-206)" stroke-linecap="butt">
      <path fill="none" d="M584 313 L664 313 L664 353 L584 353 Z" clip-path="url(#clipPath2)"/>
      <text x="600.3193" xml:space="preserve" y="337.7139" clip-path="url(#clipPath2)" font-family="sans-serif" stroke="none">Speicher</text>
    </g>
    <g text-rendering="geometricPrecision" stroke-miterlimit="1.45" shape-rendering="geometricPrecision" transform="matrix(1,0,0,1,-425,-206)" stroke-linecap="butt">
      <path fill="none" d="M519.9727 241 L575.9993 241" clip-path="url(#clipPath2)"/>
    </g>
    <g text-rendering="geometricPrecision" stroke-miterlimit="1.45" shape-rendering="geometricPrecision" transform="matrix(1,0,0,1,-425,-206)" stroke-linecap="butt">
      <path d="M583.9993 241 L571.9993 236 L574.9993 241 L571.9993 246 Z" stroke="none" clip-path="url(#clipPath2)"/>
      <path fill="none" d="M663.9727 241 L719.9993 241" clip-path="url(#clipPath2)"/>
      <path d="M727.9993 241 L715.9993 236 L718.9993 241 L715.9993 246 Z" clip-path="url(#clipPath2)" stroke="none"/>
      <path fill="none" d="M624 269.0127 L624 307 L624 313.0176" clip-path="url(#clipPath2)"/>
      <path d="M624 261.0127 L619 273.0127 L624 270.0127 L629 273.0127 Z" clip-path="url(#clipPath2)" stroke="none"/>
      <path d="M624 313.0176 L629 301.0176 L624 304.0176 L619 301.0176 Z" clip-path="url(#clipPath2)" stroke="none"/>
    </g>
  </g>
</svg>
